<mxfile host="app.diagrams.net" modified="2024-05-12T13:28:38.611Z" agent="Mozilla/5.0 (X11; Linux x86_64; rv:109.0) Gecko/20100101 Firefox/115.0" etag="7Oi-hJ5TrebMls9wi4xe" version="24.4.0" type="github">
  <diagram name="Page-1" id="edf60f1a-56cd-e834-aa8a-f176f3a09ee4">
    <mxGraphModel dx="1434" dy="792" grid="1" gridSize="10" guides="1" tooltips="1" connect="1" arrows="1" fold="1" page="1" pageScale="1" pageWidth="1100" pageHeight="850" background="none" math="0" shadow="0">
      <root>
        <mxCell id="0" />
        <mxCell id="1" parent="0" />
        <mxCell id="8wMr0uCC5O4KT8hbaWq0-14" style="edgeStyle=orthogonalEdgeStyle;rounded=0;orthogonalLoop=1;jettySize=auto;html=1;entryX=0.5;entryY=0;entryDx=0;entryDy=0;fontFamily=Times New Roman;" parent="1" source="5ZXFGwmUAfrGcH8a05qJ-14" target="5ZXFGwmUAfrGcH8a05qJ-30" edge="1">
          <mxGeometry relative="1" as="geometry" />
        </mxCell>
        <mxCell id="5ZXFGwmUAfrGcH8a05qJ-14" value="Wait for WiFi connection" style="rounded=1;whiteSpace=wrap;html=1;absoluteArcSize=1;arcSize=14;strokeWidth=2;fillColor=#dae8fc;strokeColor=#6c8ebf;fontFamily=Times New Roman;" parent="1" vertex="1">
          <mxGeometry x="50" y="290" width="100" height="30" as="geometry" />
        </mxCell>
        <mxCell id="8wMr0uCC5O4KT8hbaWq0-24" style="edgeStyle=orthogonalEdgeStyle;rounded=0;orthogonalLoop=1;jettySize=auto;html=1;entryX=0.5;entryY=0;entryDx=0;entryDy=0;fontFamily=Times New Roman;" parent="1" source="5ZXFGwmUAfrGcH8a05qJ-30" target="5ZXFGwmUAfrGcH8a05qJ-41" edge="1">
          <mxGeometry relative="1" as="geometry" />
        </mxCell>
        <mxCell id="5ZXFGwmUAfrGcH8a05qJ-30" value="Display menu" style="rounded=1;whiteSpace=wrap;html=1;absoluteArcSize=1;arcSize=14;strokeWidth=2;fillColor=#dae8fc;strokeColor=#6c8ebf;fontFamily=Times New Roman;" parent="1" vertex="1">
          <mxGeometry x="50" y="340" width="100" height="20" as="geometry" />
        </mxCell>
        <mxCell id="8wMr0uCC5O4KT8hbaWq0-25" style="edgeStyle=orthogonalEdgeStyle;rounded=0;orthogonalLoop=1;jettySize=auto;html=1;entryX=0.5;entryY=0;entryDx=0;entryDy=0;fontFamily=Times New Roman;" parent="1" source="5ZXFGwmUAfrGcH8a05qJ-41" target="8wMr0uCC5O4KT8hbaWq0-12" edge="1">
          <mxGeometry relative="1" as="geometry" />
        </mxCell>
        <mxCell id="5ZXFGwmUAfrGcH8a05qJ-41" value="Wait for user input" style="rounded=1;whiteSpace=wrap;html=1;absoluteArcSize=1;arcSize=14;strokeWidth=2;fillColor=#dae8fc;strokeColor=#6c8ebf;fontFamily=Times New Roman;" parent="1" vertex="1">
          <mxGeometry x="50" y="380" width="100" height="20" as="geometry" />
        </mxCell>
        <mxCell id="5ZXFGwmUAfrGcH8a05qJ-48" value="" style="edgeStyle=orthogonalEdgeStyle;rounded=0;orthogonalLoop=1;jettySize=auto;html=1;fontFamily=Times New Roman;entryX=0.5;entryY=0;entryDx=0;entryDy=0;" parent="1" source="5ZXFGwmUAfrGcH8a05qJ-46" target="8wMr0uCC5O4KT8hbaWq0-1" edge="1">
          <mxGeometry relative="1" as="geometry">
            <mxPoint x="99.95" y="117.5" as="targetPoint" />
          </mxGeometry>
        </mxCell>
        <mxCell id="5ZXFGwmUAfrGcH8a05qJ-46" value="Power on" style="strokeWidth=2;html=1;shape=mxgraph.flowchart.terminator;whiteSpace=wrap;fillColor=#f8cecc;strokeColor=#b85450;fontFamily=Times New Roman;" parent="1" vertex="1">
          <mxGeometry x="49.95" y="52.5" width="100" height="50" as="geometry" />
        </mxCell>
        <mxCell id="ysdGPth_6hGBKLoIkk0C-103" value="&lt;font style=&quot;font-size: 16px;&quot;&gt;&lt;b&gt;USER CONTROL SEQUENCE&lt;br&gt;&lt;/b&gt;&lt;/font&gt;" style="text;html=1;align=center;verticalAlign=middle;resizable=0;points=[];autosize=1;strokeColor=none;fillColor=none;fontFamily=Times New Roman;" parent="1" vertex="1">
          <mxGeometry x="40" y="10" width="240" height="30" as="geometry" />
        </mxCell>
        <mxCell id="Sxoak5ZOZguQGcgC7deF-1" style="edgeStyle=orthogonalEdgeStyle;rounded=0;orthogonalLoop=1;jettySize=auto;html=1;entryX=0.5;entryY=0;entryDx=0;entryDy=0;" edge="1" parent="1" source="8wMr0uCC5O4KT8hbaWq0-1" target="8wMr0uCC5O4KT8hbaWq0-2">
          <mxGeometry relative="1" as="geometry" />
        </mxCell>
        <mxCell id="8wMr0uCC5O4KT8hbaWq0-1" value="Initialise LCD" style="rounded=1;whiteSpace=wrap;html=1;absoluteArcSize=1;arcSize=14;strokeWidth=2;fillColor=#dae8fc;strokeColor=#6c8ebf;fontFamily=Times New Roman;" parent="1" vertex="1">
          <mxGeometry x="49.95" y="122.5" width="100" height="20" as="geometry" />
        </mxCell>
        <mxCell id="8wMr0uCC5O4KT8hbaWq0-20" style="edgeStyle=orthogonalEdgeStyle;rounded=0;orthogonalLoop=1;jettySize=auto;html=1;entryX=0.5;entryY=0;entryDx=0;entryDy=0;fontFamily=Times New Roman;" parent="1" source="8wMr0uCC5O4KT8hbaWq0-2" target="8wMr0uCC5O4KT8hbaWq0-13" edge="1">
          <mxGeometry relative="1" as="geometry" />
        </mxCell>
        <mxCell id="8wMr0uCC5O4KT8hbaWq0-2" value="Initialise SD card" style="rounded=1;whiteSpace=wrap;html=1;absoluteArcSize=1;arcSize=14;strokeWidth=2;fillColor=#dae8fc;strokeColor=#6c8ebf;fontFamily=Times New Roman;" parent="1" vertex="1">
          <mxGeometry x="50" y="160" width="100" height="20" as="geometry" />
        </mxCell>
        <mxCell id="8wMr0uCC5O4KT8hbaWq0-27" style="edgeStyle=orthogonalEdgeStyle;rounded=0;orthogonalLoop=1;jettySize=auto;html=1;entryX=0.5;entryY=0;entryDx=0;entryDy=0;fontFamily=Times New Roman;" parent="1" edge="1">
          <mxGeometry relative="1" as="geometry">
            <mxPoint x="630" y="590" as="sourcePoint" />
            <mxPoint x="630" y="611" as="targetPoint" />
          </mxGeometry>
        </mxCell>
        <mxCell id="Sxoak5ZOZguQGcgC7deF-9" style="edgeStyle=orthogonalEdgeStyle;rounded=0;orthogonalLoop=1;jettySize=auto;html=1;entryX=0.5;entryY=0;entryDx=0;entryDy=0;" edge="1" parent="1" source="8wMr0uCC5O4KT8hbaWq0-12" target="Sxoak5ZOZguQGcgC7deF-4">
          <mxGeometry relative="1" as="geometry" />
        </mxCell>
        <mxCell id="8wMr0uCC5O4KT8hbaWq0-12" value="Display loading" style="rounded=1;whiteSpace=wrap;html=1;absoluteArcSize=1;arcSize=14;strokeWidth=2;fillColor=#dae8fc;strokeColor=#6c8ebf;fontFamily=Times New Roman;" parent="1" vertex="1">
          <mxGeometry x="49.95" y="425" width="100" height="20" as="geometry" />
        </mxCell>
        <mxCell id="8wMr0uCC5O4KT8hbaWq0-65" style="edgeStyle=orthogonalEdgeStyle;rounded=0;orthogonalLoop=1;jettySize=auto;html=1;entryX=0.5;entryY=0;entryDx=0;entryDy=0;" parent="1" source="8wMr0uCC5O4KT8hbaWq0-13" target="8wMr0uCC5O4KT8hbaWq0-64" edge="1">
          <mxGeometry relative="1" as="geometry" />
        </mxCell>
        <mxCell id="8wMr0uCC5O4KT8hbaWq0-13" value="Display &quot;Connecting&quot;" style="rounded=1;whiteSpace=wrap;html=1;absoluteArcSize=1;arcSize=14;strokeWidth=2;fillColor=#dae8fc;strokeColor=#6c8ebf;fontFamily=Times New Roman;" parent="1" vertex="1">
          <mxGeometry x="49.95" y="200" width="100" height="30" as="geometry" />
        </mxCell>
        <mxCell id="Sxoak5ZOZguQGcgC7deF-11" style="edgeStyle=orthogonalEdgeStyle;rounded=0;orthogonalLoop=1;jettySize=auto;html=1;entryX=0;entryY=0.5;entryDx=0;entryDy=0;" edge="1" parent="1" source="8wMr0uCC5O4KT8hbaWq0-37" target="Sxoak5ZOZguQGcgC7deF-5">
          <mxGeometry relative="1" as="geometry" />
        </mxCell>
        <mxCell id="8wMr0uCC5O4KT8hbaWq0-37" value="Send instruction" style="shape=parallelogram;html=1;strokeWidth=2;perimeter=parallelogramPerimeter;whiteSpace=wrap;rounded=1;arcSize=12;size=0.23;fillColor=#d5e8d4;strokeColor=#82b366;fontFamily=Times New Roman;" parent="1" vertex="1">
          <mxGeometry x="27.50999999999999" y="540" width="144.98" height="25" as="geometry" />
        </mxCell>
        <mxCell id="8wMr0uCC5O4KT8hbaWq0-63" value="" style="group" parent="1" vertex="1" connectable="0">
          <mxGeometry x="369.99999999999994" y="146.99999999999997" width="230" height="283.00000000000006" as="geometry" />
        </mxCell>
        <mxCell id="8wMr0uCC5O4KT8hbaWq0-60" value="" style="rounded=0;whiteSpace=wrap;html=1;dashed=1;" parent="8wMr0uCC5O4KT8hbaWq0-63" vertex="1">
          <mxGeometry width="230" height="283" as="geometry" />
        </mxCell>
        <mxCell id="8wMr0uCC5O4KT8hbaWq0-51" value="&lt;b&gt;KEY&lt;/b&gt;" style="text;html=1;align=center;verticalAlign=middle;resizable=0;points=[];autosize=1;strokeColor=none;fillColor=none;fontFamily=Times New Roman;" parent="8wMr0uCC5O4KT8hbaWq0-63" vertex="1">
          <mxGeometry x="89.99999999999994" y="9.5" width="50" height="30" as="geometry" />
        </mxCell>
        <mxCell id="8wMr0uCC5O4KT8hbaWq0-52" value="" style="strokeWidth=2;html=1;shape=mxgraph.flowchart.terminator;whiteSpace=wrap;fillColor=#f8cecc;strokeColor=#b85450;fontFamily=Times New Roman;" parent="8wMr0uCC5O4KT8hbaWq0-63" vertex="1">
          <mxGeometry x="20" y="49.5" width="60" height="25" as="geometry" />
        </mxCell>
        <mxCell id="8wMr0uCC5O4KT8hbaWq0-53" value="" style="rounded=1;whiteSpace=wrap;html=1;absoluteArcSize=1;arcSize=14;strokeWidth=2;fillColor=#dae8fc;strokeColor=#6c8ebf;fontFamily=Times New Roman;" parent="8wMr0uCC5O4KT8hbaWq0-63" vertex="1">
          <mxGeometry x="20" y="94.5" width="60" height="12.5" as="geometry" />
        </mxCell>
        <mxCell id="8wMr0uCC5O4KT8hbaWq0-54" value="" style="shape=parallelogram;html=1;strokeWidth=2;perimeter=parallelogramPerimeter;whiteSpace=wrap;rounded=1;arcSize=12;size=0.23;fillColor=#d5e8d4;strokeColor=#82b366;fontFamily=Times New Roman;" parent="8wMr0uCC5O4KT8hbaWq0-63" vertex="1">
          <mxGeometry x="20" y="122" width="60" height="12.5" as="geometry" />
        </mxCell>
        <mxCell id="8wMr0uCC5O4KT8hbaWq0-55" value="" style="strokeWidth=2;html=1;shape=mxgraph.flowchart.decision;whiteSpace=wrap;fontFamily=Times New Roman;fillColor=#e1d5e7;strokeColor=#9673a6;" parent="8wMr0uCC5O4KT8hbaWq0-63" vertex="1">
          <mxGeometry x="20" y="152.00000000000006" width="60" height="60" as="geometry" />
        </mxCell>
        <mxCell id="8wMr0uCC5O4KT8hbaWq0-56" value="Entry/exit" style="text;html=1;align=left;verticalAlign=middle;whiteSpace=wrap;rounded=0;" parent="8wMr0uCC5O4KT8hbaWq0-63" vertex="1">
          <mxGeometry x="95" y="44.5" width="60" height="30" as="geometry" />
        </mxCell>
        <mxCell id="8wMr0uCC5O4KT8hbaWq0-57" value="General operation" style="text;html=1;align=left;verticalAlign=middle;whiteSpace=wrap;rounded=0;" parent="8wMr0uCC5O4KT8hbaWq0-63" vertex="1">
          <mxGeometry x="95" y="84.5" width="110" height="30" as="geometry" />
        </mxCell>
        <mxCell id="8wMr0uCC5O4KT8hbaWq0-58" value="Communication (I/O) operation" style="text;html=1;align=left;verticalAlign=middle;whiteSpace=wrap;rounded=0;" parent="8wMr0uCC5O4KT8hbaWq0-63" vertex="1">
          <mxGeometry x="95" y="114.5" width="130" height="30" as="geometry" />
        </mxCell>
        <mxCell id="8wMr0uCC5O4KT8hbaWq0-59" value="Decision" style="text;html=1;align=left;verticalAlign=middle;whiteSpace=wrap;rounded=0;" parent="8wMr0uCC5O4KT8hbaWq0-63" vertex="1">
          <mxGeometry x="95" y="166.50000000000006" width="130" height="30" as="geometry" />
        </mxCell>
        <mxCell id="8wMr0uCC5O4KT8hbaWq0-61" value="1" style="strokeWidth=2;html=1;shape=mxgraph.flowchart.start_2;whiteSpace=wrap;fontFamily=Times New Roman;" parent="8wMr0uCC5O4KT8hbaWq0-63" vertex="1">
          <mxGeometry x="39.99999999999983" y="232.00000000000006" width="20" height="20" as="geometry" />
        </mxCell>
        <mxCell id="8wMr0uCC5O4KT8hbaWq0-62" value="Link - connects to the same number" style="text;html=1;align=left;verticalAlign=middle;whiteSpace=wrap;rounded=0;" parent="8wMr0uCC5O4KT8hbaWq0-63" vertex="1">
          <mxGeometry x="95" y="227.00000000000006" width="130" height="30" as="geometry" />
        </mxCell>
        <mxCell id="8wMr0uCC5O4KT8hbaWq0-66" style="edgeStyle=orthogonalEdgeStyle;rounded=0;orthogonalLoop=1;jettySize=auto;html=1;entryX=0.5;entryY=0;entryDx=0;entryDy=0;" parent="1" source="8wMr0uCC5O4KT8hbaWq0-64" target="5ZXFGwmUAfrGcH8a05qJ-14" edge="1">
          <mxGeometry relative="1" as="geometry" />
        </mxCell>
        <mxCell id="8wMr0uCC5O4KT8hbaWq0-64" value="Trigger RF linker" style="rounded=1;whiteSpace=wrap;html=1;absoluteArcSize=1;arcSize=14;strokeWidth=2;fillColor=#dae8fc;strokeColor=#6c8ebf;fontFamily=Times New Roman;" parent="1" vertex="1">
          <mxGeometry x="50.00000000000001" y="250" width="100" height="20" as="geometry" />
        </mxCell>
        <mxCell id="Sxoak5ZOZguQGcgC7deF-3" style="edgeStyle=orthogonalEdgeStyle;rounded=0;orthogonalLoop=1;jettySize=auto;html=1;entryX=1;entryY=0.5;entryDx=0;entryDy=0;" edge="1" parent="1" source="Sxoak5ZOZguQGcgC7deF-2" target="8wMr0uCC5O4KT8hbaWq0-13">
          <mxGeometry relative="1" as="geometry">
            <Array as="points">
              <mxPoint x="220" y="215" />
            </Array>
          </mxGeometry>
        </mxCell>
        <mxCell id="Sxoak5ZOZguQGcgC7deF-2" value="Camera/transmitter disconnected" style="strokeWidth=2;html=1;shape=mxgraph.flowchart.terminator;whiteSpace=wrap;fillColor=#f8cecc;strokeColor=#b85450;fontFamily=Times New Roman;" vertex="1" parent="1">
          <mxGeometry x="170" y="50" width="100" height="50" as="geometry" />
        </mxCell>
        <mxCell id="Sxoak5ZOZguQGcgC7deF-10" style="edgeStyle=orthogonalEdgeStyle;rounded=0;orthogonalLoop=1;jettySize=auto;html=1;" edge="1" parent="1" source="Sxoak5ZOZguQGcgC7deF-4" target="8wMr0uCC5O4KT8hbaWq0-37">
          <mxGeometry relative="1" as="geometry" />
        </mxCell>
        <mxCell id="Sxoak5ZOZguQGcgC7deF-4" value="Wait for instruction request from camera/transmitter" style="rounded=1;whiteSpace=wrap;html=1;absoluteArcSize=1;arcSize=14;strokeWidth=2;fillColor=#dae8fc;strokeColor=#6c8ebf;fontFamily=Times New Roman;" vertex="1" parent="1">
          <mxGeometry x="49.95" y="470" width="100" height="50" as="geometry" />
        </mxCell>
        <mxCell id="Sxoak5ZOZguQGcgC7deF-12" style="edgeStyle=orthogonalEdgeStyle;rounded=0;orthogonalLoop=1;jettySize=auto;html=1;entryX=0.5;entryY=1;entryDx=0;entryDy=0;" edge="1" parent="1" source="Sxoak5ZOZguQGcgC7deF-5" target="Sxoak5ZOZguQGcgC7deF-7">
          <mxGeometry relative="1" as="geometry" />
        </mxCell>
        <mxCell id="Sxoak5ZOZguQGcgC7deF-5" value="Display &quot;Sent&quot;" style="rounded=1;whiteSpace=wrap;html=1;absoluteArcSize=1;arcSize=14;strokeWidth=2;fillColor=#dae8fc;strokeColor=#6c8ebf;fontFamily=Times New Roman;" vertex="1" parent="1">
          <mxGeometry x="211.25" y="542.5" width="100" height="20" as="geometry" />
        </mxCell>
        <mxCell id="Sxoak5ZOZguQGcgC7deF-14" style="edgeStyle=orthogonalEdgeStyle;rounded=0;orthogonalLoop=1;jettySize=auto;html=1;entryX=1;entryY=0.5;entryDx=0;entryDy=0;" edge="1" parent="1" source="Sxoak5ZOZguQGcgC7deF-6" target="5ZXFGwmUAfrGcH8a05qJ-30">
          <mxGeometry relative="1" as="geometry">
            <Array as="points">
              <mxPoint x="260" y="350" />
            </Array>
          </mxGeometry>
        </mxCell>
        <mxCell id="Sxoak5ZOZguQGcgC7deF-6" value="Wait for confirmaton of completion" style="rounded=1;whiteSpace=wrap;html=1;absoluteArcSize=1;arcSize=14;strokeWidth=2;fillColor=#dae8fc;strokeColor=#6c8ebf;fontFamily=Times New Roman;" vertex="1" parent="1">
          <mxGeometry x="211.25" y="380" width="100" height="50" as="geometry" />
        </mxCell>
        <mxCell id="Sxoak5ZOZguQGcgC7deF-13" style="edgeStyle=orthogonalEdgeStyle;rounded=0;orthogonalLoop=1;jettySize=auto;html=1;entryX=0.5;entryY=1;entryDx=0;entryDy=0;" edge="1" parent="1" source="Sxoak5ZOZguQGcgC7deF-7" target="Sxoak5ZOZguQGcgC7deF-6">
          <mxGeometry relative="1" as="geometry" />
        </mxCell>
        <mxCell id="Sxoak5ZOZguQGcgC7deF-7" value="Handle any relevant camera/transmitter &lt;br&gt;requests" style="shape=parallelogram;html=1;strokeWidth=2;perimeter=parallelogramPerimeter;whiteSpace=wrap;rounded=1;arcSize=12;size=0.23;fillColor=#d5e8d4;strokeColor=#82b366;fontFamily=Times New Roman;" vertex="1" parent="1">
          <mxGeometry x="172.49" y="470" width="177.51" height="50" as="geometry" />
        </mxCell>
      </root>
    </mxGraphModel>
  </diagram>
</mxfile>
